<svg width="14" height="14" viewBox="0 0 14 14" fill="none" xmlns="http://www.w3.org/2000/svg" svg-inline="" role="presentation" focusable="false" tabindex="-1"><path fill-rule="evenodd" clip-rule="evenodd" d="M4.667 2.917V3.5H2.333a.583.583 0 100 1.167h.584V10.5c0 .966.783 1.75 1.75 1.75h4.667a1.75 1.75 0 001.75-1.75V4.667h.583a.583.583 0 000-1.167H9.334v-.583a1.75 1.75 0 00-1.75-1.75H6.417a1.75 1.75 0 00-1.75 1.75zm1.75-.584a.583.583 0 00-.584.584V3.5h2.334v-.583a.583.583 0 00-.583-.584H6.417zm0 4.084a.583.583 0 00-1.167 0v2.916a.583.583 0 001.167 0V6.417zM8.75 9.333a.583.583 0 01-1.166 0V6.417a.583.583 0 011.166 0v2.916z" fill="#fff"></path></svg>